<svg width="25" height="25" viewBox="0 0 25 25" fill="none" xmlns="http://www.w3.org/2000/svg">
<g id="call-icon" clip-path="url(#clip0_2_3)">
<g id="Group">
<path id="Vector" d="M23.7548 19.4296C23.6477 19.1373 23.4677 18.8478 23.2125 18.605C22.9401 18.347 22.5783 18.0709 22.1574 17.7733C21.529 17.33 20.7787 16.8549 20.1073 16.4617C19.7717 16.265 19.4561 16.0894 19.1823 15.948C18.9042 15.8056 18.6847 15.6999 18.4691 15.6285C18.2891 15.5694 18.1039 15.5432 17.924 15.5432C17.3812 15.547 16.8985 15.7636 16.4942 16.075C16.0919 16.3907 15.7586 16.8154 15.5658 17.3267C15.5416 17.3919 15.5182 17.4423 15.4968 17.4842C14.914 17.1086 13.4795 16.0436 11.369 13.5393C9.91929 11.8187 9.08325 10.5251 8.61426 9.67764C8.40098 9.29106 8.26621 9.00205 8.18101 8.80259C8.22627 8.78833 8.28008 8.77402 8.34912 8.76118C8.93516 8.64741 9.44795 8.35361 9.84219 7.95937C10.0388 7.76084 10.2063 7.53467 10.3297 7.28003C10.452 7.02578 10.5315 6.73965 10.5315 6.43398C10.5315 6.35215 10.5258 6.27022 10.514 6.1874C10.4916 6.03599 10.454 5.88696 10.4045 5.7103C10.2312 5.10137 9.89551 4.19395 9.51987 3.29839C9.33232 2.85132 9.1352 2.41094 8.94331 2.01816C8.75049 1.62441 8.56768 1.28257 8.38535 1.00933C8.12353 0.617041 7.75737 0.349463 7.38984 0.199951C7.02085 0.048584 6.65098 0.000439453 6.31577 0C6.00342 0 5.71826 0.0418945 5.47397 0.100928C5.35161 0.13042 5.2397 0.164697 5.13691 0.202832C5.03311 0.241846 4.94072 0.281836 4.84082 0.341309L4.84224 0.340381C4.84224 0.340381 4.84082 0.341309 4.84033 0.341797L4.81509 0.299902L4.82178 0.352246C4.78462 0.373682 4.70371 0.419385 4.60469 0.478906C4.16621 0.742676 3.30825 1.30542 2.54033 2.23521C1.77334 3.16123 1.09585 4.48765 1.09824 6.18398C1.09824 6.5458 1.12871 6.92383 1.19395 7.31665C1.90718 11.6034 3.92441 15.1452 6.22441 17.8746C8.52441 20.6036 11.6729 23.1936 15.7773 24.6229C16.5329 24.8857 17.2556 25 17.9284 25C19.5461 24.9995 20.8397 24.3472 21.7362 23.6845C22.1866 23.3521 22.5427 23.0146 22.8031 22.7413C22.9331 22.6047 23.0393 22.4842 23.1197 22.3899C23.1987 22.2976 23.2592 22.2229 23.2702 22.2105C23.3649 22.0986 23.4306 21.9915 23.5001 21.8634C23.6982 21.4849 23.8972 20.9397 23.902 20.2899C23.9019 20.0162 23.8624 19.7225 23.7548 19.4296ZM2.56069 6.18403C2.56118 5.43657 2.72544 4.80478 2.97827 4.25581C3.35581 3.43457 3.94473 2.80132 4.47466 2.35952C4.73892 2.13862 4.98647 1.96675 5.1812 1.84199C5.27832 1.77959 5.3626 1.72964 5.42974 1.69014C5.49731 1.65059 5.54302 1.62534 5.59019 1.59727C5.60015 1.59014 5.71108 1.54541 5.84487 1.51582C5.98154 1.48491 6.15005 1.46206 6.31577 1.46255C6.50669 1.46157 6.69043 1.49253 6.83179 1.552C6.97515 1.61294 7.07749 1.68818 7.1708 1.82485C7.30459 2.02246 7.50215 2.38999 7.70498 2.81753C8.01162 3.46216 8.34248 4.25532 8.60195 4.94663C8.73145 5.2918 8.84385 5.61226 8.92573 5.87222C9.00806 6.12837 9.06001 6.34019 9.06665 6.39639L9.06904 6.43398C9.06953 6.48252 9.05576 6.55493 9.01289 6.64394C8.95005 6.77676 8.81909 6.9377 8.64775 7.06523C8.47681 7.1938 8.27017 7.28809 8.07593 7.32427C7.81597 7.37378 7.59316 7.44663 7.40034 7.54468C7.11182 7.68892 6.89277 7.90322 6.77139 8.12412C6.64761 8.34502 6.62241 8.5498 6.62285 8.6707L6.62666 8.75352L6.64951 8.87539C6.68237 8.99585 7.24272 10.9126 10.2507 14.4819C13.2587 18.0513 15.0527 18.9282 15.166 18.9811L15.2898 19.0263C15.3393 19.0392 15.4236 19.0563 15.5378 19.0563C15.7377 19.0602 16.0401 18.9896 16.302 18.7802C16.5662 18.5727 16.7781 18.2612 16.9357 17.8395C17.019 17.6123 17.1933 17.3833 17.3932 17.2291C17.5922 17.071 17.8079 17.0025 17.9241 17.0063L18.0169 17.0191C18.0517 17.0301 18.1579 17.0729 18.2893 17.1367C18.7606 17.3615 19.5848 17.8352 20.3617 18.3317C20.7517 18.5803 21.1326 18.8359 21.4572 19.0702C21.7814 19.303 22.0528 19.5196 22.2037 19.6639C22.2927 19.7496 22.3441 19.8343 22.3822 19.9357C22.4199 20.0367 22.4394 20.1562 22.4394 20.2899C22.4403 20.4994 22.3875 20.7389 22.3166 20.9322C22.2818 21.0284 22.2427 21.1131 22.2104 21.1741L22.1694 21.2445L22.1608 21.2569C22.1175 21.3079 22.0761 21.3598 22.0071 21.4407C21.7733 21.7159 21.2806 22.251 20.5807 22.7071C19.8798 23.1646 18.9915 23.537 17.9283 23.5375C17.4193 23.537 16.8662 23.4527 16.2582 23.2413C12.4575 21.9187 9.51562 19.5101 7.34321 16.932C5.17075 14.3535 3.29634 11.0465 2.63647 7.07681C2.58408 6.76103 2.56069 6.46445 2.56069 6.18403Z" fill="#4B4B4B"/>
</g>
</g>
<defs>
<clipPath id="clip0_2_3">
<rect width="25" height="25" fill="white"/>
</clipPath>
</defs>
</svg>
